REM DIRINDEX 1\2,1\3,1\4
REM DIRNAME cjc151,folder01,folder02,folder03
TITLE ""
FILE "030 030_TOEFL_3900.mp3" MP3
  TRACK 01 AUDIO
    TITLE "2:cjc151_1284"
    INDEX 01 00:00:00
  TRACK 02 AUDIO
    TITLE "0:"
    INDEX 01 00:01:26
  TRACK 03 AUDIO
    TITLE "3:cjc151_1285"
    INDEX 01 00:03:06
  TRACK 04 AUDIO
    TITLE "0:"
    INDEX 01 00:06:47
  TRACK 05 AUDIO
    TITLE "2:cjc151_1286"
    INDEX 01 00:08:24
  TRACK 06 AUDIO
    TITLE "0:"
    INDEX 01 00:09:40
  TRACK 07 AUDIO
    TITLE "3:cjc151_1287"
    INDEX 01 00:11:17
  TRACK 08 AUDIO
    TITLE "0:"
    INDEX 01 00:14:25
  TRACK 09 AUDIO
    TITLE "2:cjc151_1288"
    INDEX 01 00:16:02
  TRACK 10 AUDIO
    TITLE "0:"
    INDEX 01 00:17:31
  TRACK 11 AUDIO
    TITLE "3:cjc151_1289"
    INDEX 01 00:19:07
  TRACK 12 AUDIO
    TITLE "0:"
    INDEX 01 00:23:38
  TRACK 13 AUDIO
    TITLE "2:cjc151_1290"
    INDEX 01 00:25:17
  TRACK 14 AUDIO
    TITLE "0:"
    INDEX 01 00:26:22
  TRACK 15 AUDIO
    TITLE "3:cjc151_1291"
    INDEX 01 00:28:02
  TRACK 16 AUDIO
    TITLE "0:"
    INDEX 01 00:31:41
  TRACK 17 AUDIO
    TITLE "2:cjc151_1292"
    INDEX 01 00:33:21
  TRACK 18 AUDIO
    TITLE "0:"
    INDEX 01 00:34:22
  TRACK 19 AUDIO
    TITLE "3:cjc151_1293"
    INDEX 01 00:36:01
  TRACK 20 AUDIO
    TITLE "0:"
    INDEX 01 00:40:07
  TRACK 21 AUDIO
    TITLE "2:cjc151_1294"
    INDEX 01 00:41:59
  TRACK 22 AUDIO
    TITLE "0:"
    INDEX 01 00:42:68
  TRACK 23 AUDIO
    TITLE "3:cjc151_1295"
    INDEX 01 00:44:50
  TRACK 24 AUDIO
    TITLE "0:"
    INDEX 01 00:48:00
  TRACK 25 AUDIO
    TITLE "2:cjc151_1296"
    INDEX 01 00:49:57
  TRACK 26 AUDIO
    TITLE "0:"
    INDEX 01 00:50:68
  TRACK 27 AUDIO
    TITLE "3:cjc151_1297"
    INDEX 01 00:52:43
  TRACK 28 AUDIO
    TITLE "0:"
    INDEX 01 00:56:35
  TRACK 29 AUDIO
    TITLE "2:cjc151_1298"
    INDEX 01 00:58:15
  TRACK 30 AUDIO
    TITLE "0:"
    INDEX 01 00:59:38
  TRACK 31 AUDIO
    TITLE "3:cjc151_1299"
    INDEX 01 01:01:17
  TRACK 32 AUDIO
    TITLE "0:"
    INDEX 01 01:05:13
  TRACK 33 AUDIO
    TITLE "2:cjc151_1300"
    INDEX 01 01:06:67
  TRACK 34 AUDIO
    TITLE "0:"
    INDEX 01 01:08:09
  TRACK 35 AUDIO
    TITLE "3:cjc151_1301"
    INDEX 01 01:09:61
  TRACK 36 AUDIO
    TITLE "0:"
    INDEX 01 01:12:56
  TRACK 37 AUDIO
    TITLE "2:cjc151_1302"
    INDEX 01 01:14:37
  TRACK 38 AUDIO
    TITLE "0:"
    INDEX 01 01:15:27
  TRACK 39 AUDIO
    TITLE "3:cjc151_1303"
    INDEX 01 01:17:08
  TRACK 40 AUDIO
    TITLE "0:"
    INDEX 01 01:21:47
  TRACK 41 AUDIO
    TITLE "2:cjc151_1304"
    INDEX 01 01:23:26
  TRACK 42 AUDIO
    TITLE "0:"
    INDEX 01 01:24:24
  TRACK 43 AUDIO
    TITLE "3:cjc151_1305"
    INDEX 01 01:26:03
  TRACK 44 AUDIO
    TITLE "0:"
    INDEX 01 01:29:05
  TRACK 45 AUDIO
    TITLE "2:cjc151_1306"
    INDEX 01 01:30:60
  TRACK 46 AUDIO
    TITLE "0:"
    INDEX 01 01:31:73
  TRACK 47 AUDIO
    TITLE "3:cjc151_1307"
    INDEX 01 01:33:52
  TRACK 48 AUDIO
    TITLE "0:"
    INDEX 01 01:37:34
  TRACK 49 AUDIO
    TITLE "2:cjc151_1308"
    INDEX 01 01:39:15
  TRACK 50 AUDIO
    TITLE "0:"
    INDEX 01 01:40:27
  TRACK 51 AUDIO
    TITLE "3:cjc151_1309"
    INDEX 01 01:42:00
  TRACK 52 AUDIO
    TITLE "0:"
    INDEX 01 01:45:14
  TRACK 53 AUDIO
    TITLE "2:cjc151_1310"
    INDEX 01 01:46:66
  TRACK 54 AUDIO
    TITLE "0:"
    INDEX 01 01:47:70
  TRACK 55 AUDIO
    TITLE "3:cjc151_1311"
    INDEX 01 01:49:49
  TRACK 56 AUDIO
    TITLE "0:"
    INDEX 01 01:53:53
  TRACK 57 AUDIO
    TITLE "2:cjc151_1312"
    INDEX 01 01:55:32
  TRACK 58 AUDIO
    TITLE "0:"
    INDEX 01 01:56:43
  TRACK 59 AUDIO
    TITLE "3:cjc151_1313"
    INDEX 01 01:58:23
  TRACK 60 AUDIO
    TITLE "0:"
    INDEX 01 02:02:17
  TRACK 61 AUDIO
    TITLE "2:cjc151_1314"
    INDEX 01 02:03:73
  TRACK 62 AUDIO
    TITLE "0:"
    INDEX 01 02:05:03
  TRACK 63 AUDIO
    TITLE "3:cjc151_1315"
    INDEX 01 02:06:54
  TRACK 64 AUDIO
    TITLE "0:"
    INDEX 01 02:11:15
  TRACK 65 AUDIO
    TITLE "2:cjc151_1316"
    INDEX 01 02:12:70
  TRACK 66 AUDIO
    TITLE "0:"
    INDEX 01 02:14:08
  TRACK 67 AUDIO
    TITLE "3:cjc151_1317"
    INDEX 01 02:15:62
  TRACK 68 AUDIO
    TITLE "0:"
    INDEX 01 02:19:56
  TRACK 69 AUDIO
    TITLE "2:cjc151_1318"
    INDEX 01 02:21:37
  TRACK 70 AUDIO
    TITLE "0:"
    INDEX 01 02:22:53
  TRACK 71 AUDIO
    TITLE "3:cjc151_1319"
    INDEX 01 02:24:30
  TRACK 72 AUDIO
    TITLE "0:"
    INDEX 01 02:28:26
  TRACK 73 AUDIO
    TITLE "2:cjc151_1320"
    INDEX 01 02:30:07
  TRACK 74 AUDIO
    TITLE "0:"
    INDEX 01 02:31:12
  TRACK 75 AUDIO
    TITLE "3:cjc151_1321"
    INDEX 01 02:32:69
  TRACK 76 AUDIO
    TITLE "0:"
    INDEX 01 02:37:11
  TRACK 77 AUDIO
    TITLE "2:cjc151_1322"
    INDEX 01 02:38:65
  TRACK 78 AUDIO
    TITLE "0:"
    INDEX 01 02:39:63
  TRACK 79 AUDIO
    TITLE "3:cjc151_1323"
    INDEX 01 02:41:42
  TRACK 80 AUDIO
    TITLE "0:"
    INDEX 01 02:46:00
  TRACK 81 AUDIO
    TITLE "2:cjc151_1324"
    INDEX 01 02:47:54
  TRACK 82 AUDIO
    TITLE "0:"
    INDEX 01 02:48:72
  TRACK 83 AUDIO
    TITLE "3:cjc151_1325"
    INDEX 01 02:50:49
  TRACK 84 AUDIO
    TITLE "0:"
    INDEX 01 02:54:45
  TRACK 85 AUDIO
    TITLE "2:cjc151_1326"
    INDEX 01 02:56:24
  TRACK 86 AUDIO
    TITLE "0:"
    INDEX 01 02:57:35
  TRACK 87 AUDIO
    TITLE "3:cjc151_1327"
    INDEX 01 02:59:15
  TRACK 88 AUDIO
    TITLE "0:"
    INDEX 01 03:03:38
